<mxfile host="Electron" modified="2024-06-19T07:44:15.384Z" agent="Mozilla/5.0 (Windows NT 10.0; Win64; x64) AppleWebKit/537.36 (KHTML, like Gecko) draw.io/24.5.3 Chrome/124.0.6367.207 Electron/30.0.6 Safari/537.36" version="24.5.3" etag="NWhrrJOsmYfTlzzJh933" type="device">
  <diagram id="3frarxY2WcATlFqvioPy" name="Страница — 1">
    <mxGraphModel dx="2049" dy="1206" grid="1" gridSize="10" guides="1" tooltips="1" connect="1" arrows="1" fold="1" page="1" pageScale="1" pageWidth="827" pageHeight="1169" math="0" shadow="0">
      <root>
        <mxCell id="0" />
        <mxCell id="1" parent="0" />
        <mxCell id="0kr5nzasb6KpvMQw3e8k-19" value="" style="group" vertex="1" connectable="0" parent="1">
          <mxGeometry x="170" y="270" width="246" height="120" as="geometry" />
        </mxCell>
        <mxCell id="0kr5nzasb6KpvMQw3e8k-12" value="&lt;blockquote style=&quot;margin: 0 0 0 40px; border: none; padding: 0px;&quot;&gt;&lt;div style=&quot;&quot;&gt;&lt;span style=&quot;background-color: initial;&quot;&gt;Все, что связано с кубами, бросками и основными правилами. Желательно с минимальным количеством воды.&lt;/span&gt;&lt;/div&gt;&lt;/blockquote&gt;" style="rounded=1;whiteSpace=wrap;html=1;align=center;" vertex="1" parent="0kr5nzasb6KpvMQw3e8k-19">
          <mxGeometry x="86" width="160" height="120" as="geometry" />
        </mxCell>
        <mxCell id="0kr5nzasb6KpvMQw3e8k-7" value="Основные механики" style="ellipse;whiteSpace=wrap;html=1;aspect=fixed;align=center;" vertex="1" parent="0kr5nzasb6KpvMQw3e8k-19">
          <mxGeometry width="120" height="120" as="geometry" />
        </mxCell>
        <mxCell id="0kr5nzasb6KpvMQw3e8k-23" value="" style="group" vertex="1" connectable="0" parent="1">
          <mxGeometry x="490" y="270" width="260" height="120" as="geometry" />
        </mxCell>
        <mxCell id="0kr5nzasb6KpvMQw3e8k-20" value="&lt;blockquote style=&quot;margin: 0px 0px 0px 40px; border: none; padding: 0px;&quot;&gt;Создание и развития персонажа. Должно включать в себя основные правила, классы, расы и т.д.&lt;/blockquote&gt;" style="rounded=1;whiteSpace=wrap;html=1;align=center;" vertex="1" parent="0kr5nzasb6KpvMQw3e8k-23">
          <mxGeometry x="100" width="160" height="120" as="geometry" />
        </mxCell>
        <mxCell id="0kr5nzasb6KpvMQw3e8k-11" value="Создание и развите персонажа" style="ellipse;whiteSpace=wrap;html=1;aspect=fixed;align=center;" vertex="1" parent="0kr5nzasb6KpvMQw3e8k-23">
          <mxGeometry width="120" height="120" as="geometry" />
        </mxCell>
        <mxCell id="0kr5nzasb6KpvMQw3e8k-26" value="" style="group" vertex="1" connectable="0" parent="1">
          <mxGeometry x="830" y="270" width="270" height="120" as="geometry" />
        </mxCell>
        <mxCell id="0kr5nzasb6KpvMQw3e8k-24" value="&lt;blockquote style=&quot;margin: 0 0 0 40px; border: none; padding: 0px;&quot;&gt;Глоссарий. Заполнятеся по мере работы над другими разделами&lt;/blockquote&gt;" style="rounded=1;whiteSpace=wrap;html=1;" vertex="1" parent="0kr5nzasb6KpvMQw3e8k-26">
          <mxGeometry x="100" width="170" height="120" as="geometry" />
        </mxCell>
        <mxCell id="0kr5nzasb6KpvMQw3e8k-1" value="Глоссарий" style="ellipse;whiteSpace=wrap;html=1;aspect=fixed;" vertex="1" parent="0kr5nzasb6KpvMQw3e8k-26">
          <mxGeometry width="120" height="120" as="geometry" />
        </mxCell>
        <mxCell id="0kr5nzasb6KpvMQw3e8k-28" value="" style="group" vertex="1" connectable="0" parent="1">
          <mxGeometry x="1180" y="270" width="360" height="120" as="geometry" />
        </mxCell>
        <mxCell id="0kr5nzasb6KpvMQw3e8k-27" value="&lt;blockquote style=&quot;margin: 0 0 0 40px; border: none; padding: 0px;&quot;&gt;Здесь хранятся всевозможные таблицы с характеристиками снаряжения, трейтами и прочим. Каждая таблица -- отдельный .rst файл. Подключается в соответсвующем разделе при необходимости, либо же выступает конечной точкой, на которую ссылаются.&lt;/blockquote&gt;" style="rounded=1;whiteSpace=wrap;html=1;" vertex="1" parent="0kr5nzasb6KpvMQw3e8k-28">
          <mxGeometry x="90" width="270" height="120" as="geometry" />
        </mxCell>
        <mxCell id="0kr5nzasb6KpvMQw3e8k-9" value="Таблицы" style="ellipse;whiteSpace=wrap;html=1;aspect=fixed;align=center;" vertex="1" parent="0kr5nzasb6KpvMQw3e8k-28">
          <mxGeometry width="120" height="120" as="geometry" />
        </mxCell>
      </root>
    </mxGraphModel>
  </diagram>
</mxfile>
